<?xml version="1.0" standalone="no"?>
<!DOCTYPE svg PUBLIC "-//W3C//DTD SVG 20010904//EN"
 "http://www.w3.org/TR/2001/REC-SVG-20010904/DTD/svg10.dtd">
<svg version="1.0" xmlns="http://www.w3.org/2000/svg"
 width="234.000000pt" height="250.000000pt" viewBox="0 0 234.000000 250.000000"
 preserveAspectRatio="xMidYMid meet">

<g transform="translate(0.000000,250.000000) scale(0.100000,-0.100000)"
fill="#000000" stroke="none">
<path d="M1080 2484 c-30 -7 -77 -19 -105 -25 -83 -19 -94 -30 -97 -101 l-3
-62 -129 -27 c-71 -15 -145 -30 -163 -34 l-33 -6 0 41 c0 56 -15 80 -48 80
-58 0 -385 -60 -426 -79 -24 -10 -50 -30 -57 -43 -9 -17 -13 -104 -13 -338 0
-333 11 -464 55 -669 119 -551 451 -938 1008 -1177 l105 -45 85 37 c503 215
809 523 964 970 91 261 120 492 115 916 -2 167 -7 311 -12 320 -4 9 -22 22
-39 27 -55 17 -388 81 -422 81 -46 0 -65 -22 -65 -76 0 -29 -4 -44 -12 -43 -7
0 -80 15 -163 32 l-150 32 -3 40 c-5 76 -10 85 -65 110 -49 23 -204 56 -251
54 -11 0 -46 -7 -76 -15z m206 -123 l59 -17 5 -62 c3 -33 10 -65 15 -70 13
-12 427 -102 477 -104 51 -2 68 15 68 68 0 23 3 45 8 48 14 8 284 -52 294 -65
15 -23 3 -627 -16 -747 -95 -620 -382 -999 -947 -1256 l-77 -34 -76 33 c-201
87 -413 231 -547 372 -229 240 -356 536 -405 946 -20 159 -23 686 -4 697 6 4
68 17 138 30 70 12 133 25 140 27 8 4 12 -8 12 -41 0 -45 24 -86 50 -86 20 0
415 80 450 91 59 19 70 35 70 99 l0 58 78 20 c83 22 115 21 208 -7z"/>
<path d="M563 1953 c-13 -2 -32 -16 -43 -30 -19 -25 -20 -39 -20 -435 l0 -409
25 -24 c24 -25 25 -25 225 -25 l200 0 0 -181 c0 -99 4 -189 10 -199 18 -33 66
-40 289 -40 257 0 335 10 418 51 74 36 124 89 167 179 29 62 31 72 34 213 6
201 -19 286 -109 376 -70 70 -162 105 -294 114 l-40 2 -3 50 c-12 189 -148
331 -341 356 -66 8 -476 10 -518 2z m584 -187 c69 -33 105 -86 111 -167 l4
-59 -133 0 c-185 0 -179 6 -179 -197 l0 -153 -145 0 -145 0 0 300 0 300 218 0
c208 0 219 -1 269 -24z m113 -398 c-1 -25 -29 -90 -47 -110 -16 -18 -83 -58
-98 -58 -3 0 -5 41 -5 90 l0 90 75 0 c54 0 75 -4 75 -12z m345 -18 c48 -30 83
-74 95 -122 7 -23 10 -97 8 -173 -3 -126 -4 -134 -33 -180 -20 -32 -45 -56
-74 -72 -42 -22 -53 -23 -268 -23 l-224 0 3 126 3 127 50 16 c132 44 235 163
253 293 l5 41 74 -6 c50 -4 84 -12 108 -27z"/>
</g>
</svg>
